<?xml version="1.0" encoding="utf-8"?>
<!-- Generator: Adobe Illustrator 25.0.1, SVG Export Plug-In . SVG Version: 6.00 Build 0)  -->
<svg version="1.0" id="katman_1" xmlns="http://www.w3.org/2000/svg" xmlns:xlink="http://www.w3.org/1999/xlink" x="0px" y="0px"
	 viewBox="0 0 600 400" style="enable-background:new 0 0 600 400;" xml:space="preserve">
<style type="text/css">
	.st0{fill:#D70F64;}
</style>
<g>
	<g>
		<path class="st0" d="M203.7,178.7h5.7v-5.3c0-6.4,3.6-10.7,10.7-10.7l3.6,0.7v6.4l-3.9-0.7c-2.1,0-3.2,1.4-3.2,3.6v6h7.1v6.4h-7.1
			v27.1h-7.1v-27.1h-5.7L203.7,178.7L203.7,178.7z"/>
		<path class="st0" d="M242.2,178c9.3,0,17.5,7.1,17.5,17.5c0,10.3-8.2,17.5-17.5,17.5c-9.3,0-17.5-7.1-17.5-17.5
			C224.7,185.1,232.9,178,242.2,178z M242.2,206.5c6.8,0,10.3-5,10.3-11.1c0-6.1-3.6-11.1-10.3-11.1c-6.8,0-10.3,5-10.3,11.1
			C231.8,201.5,235.4,206.5,242.2,206.5z"/>
		<path class="st0" d="M280.2,178c9.3,0,17.5,7.1,17.5,17.5c0,10.3-8.2,17.5-17.5,17.5s-17.5-7.1-17.5-17.5
			C262.8,185.1,271,178,280.2,178z M280.2,206.5c6.8,0,10.3-5,10.3-11.1c0-6.1-3.6-11.1-10.3-11.1c-6.8,0-10.3,5-10.3,11.1
			C269.9,201.5,273.5,206.5,280.2,206.5z"/>
		<path class="st0" d="M335.1,212.2h-6.4l-0.7-2.8l-0.4-0.4l-0.4,0.4c-2.1,2.1-5.7,3.6-9.3,3.6c-9.3,0-17.1-7.1-17.1-17.5
			c0-10.3,7.9-17.5,17.1-17.5c3.5,0,7.1,1.4,9.3,3.6l0.4,0.4l0.4-0.4v-18.9h7.1V212.2z M318.4,184.4c-6.8,0-10.4,5-10.4,11.1
			c0,6.1,3.6,11.1,10.4,11.1c6.1,0,10.3-5,10.3-11.1C328.7,189.4,324.4,184.4,318.4,184.4z"/>
		<path class="st0" d="M342.3,178.7h6.4l0.6,2.8l0.4,0.4l0.4-0.4c2.1-2.1,5.7-3.6,9.3-3.6c9.3,0,17.1,7.1,17.1,17.5
			c0,10.3-7.9,17.5-17.1,17.5c-3.5,0-7.1-1.4-9.3-3.6l-0.4-0.4l-0.4,0.4v18h-7.1V178.7z M359,206.5c6.8,0,10.3-5,10.3-11.1
			c0-6.1-3.6-11.1-10.3-11.1c-6.1,0-10.3,5-10.3,11.1C348.7,201.5,353,206.5,359,206.5z"/>
		<path class="st0" d="M394.4,191.4h5.8v-1.5c0-4-2.8-5.9-6.6-5.9c-3.1,0-5.2,1.5-6.3,4.5l-6.4-1.3c1.4-5.7,6.3-9.3,12.7-9.3
			c9,0,13.5,4.4,13.5,13.4v21h-5.9l-0.7-4.4c-2.4,3.3-5.8,5-10.5,5c-6,0-10.4-3.5-10.4-10.3C379.8,195.5,385.7,191.4,394.4,191.4z
			 M391.4,206.5c2.4,0,4.4-0.7,6.2-2.2c1.8-1.6,2.7-3.6,2.7-6.4v-0.7h-6.1c-4.3,0-7,2-7,5.2C387.2,204.9,388.7,206.5,391.4,206.5z"
			/>
		<path class="st0" d="M413.8,178.7h6.4l0.7,2.8l0.4,0.4l0.4-0.4c1.4-2.1,5-3.6,7.9-3.6c8.6,0,13.5,5.7,13.5,13.5v20.7H436v-20.7
			c-0.2-4.6-2.4-7.1-7.1-7.1c-4.2,0-7.7,3.4-7.9,7.5v20.3h-7.1L413.8,178.7L413.8,178.7z"/>
		<path class="st0" d="M481.9,212.2h-6.4l-0.7-2.8l-0.4-0.4l-0.4,0.4c-2.1,2.1-5.7,3.6-9.3,3.6c-9.3,0-17.1-7.1-17.1-17.5
			c0-10.3,7.9-17.5,17.1-17.5c3.5,0,7.1,1.4,9.3,3.6l0.4,0.4l0.4-0.4v-18.9h7.1V212.2z M465.1,184.4c-6.8,0-10.4,5-10.4,11.1
			c0,6.1,3.6,11.1,10.4,11.1c6.1,0,10.3-5,10.3-11.1C475.5,189.4,471.2,184.4,465.1,184.4z"/>
		<path class="st0" d="M502.2,191.4h5.8v-1.5c0-4-2.8-5.9-6.6-5.9c-3.1,0-5.2,1.5-6.3,4.5l-6.4-1.3c1.4-5.7,6.3-9.3,12.7-9.3
			c9,0,13.5,4.4,13.5,13.4v21h-5.9l-0.7-4.4c-2.4,3.3-5.8,5-10.5,5c-6,0-10.4-3.5-10.4-10.3C487.6,195.5,493.4,191.4,502.2,191.4z
			 M499.2,206.5c2.4,0,4.4-0.7,6.2-2.2c1.8-1.6,2.7-3.6,2.7-6.4v-0.7h-6.1c-4.3,0-7,2-7,5.2C495,204.9,496.4,206.5,499.2,206.5z"/>
	</g>
</g>
<g>
	<g>
		<path class="st0" d="M128.7,214c6.8,0,12.3-4.8,12.3-10.7h-24.5C116.5,209.2,121.9,214,128.7,214z"/>
		<g>
			<path class="st0" d="M170,162.8c2.8-2.4,4.6-5.9,4.6-9.9c0-7.2-5.9-13.1-13.2-13.1c-4.7,0-8.7,2.4-11,6c-6.5-3.2-13.9-5-21.6-5
				s-15.1,1.8-21.6,4.9c-2.4-3.6-6.4-6-11-6c-7.2,0-13.2,5.9-13.2,13.1c0,4,1.8,7.5,4.5,9.9c-5.4,7.9-8.5,17.5-8.5,27.8
				c0,27.5,22.3,49.8,49.8,49.8s49.8-22.3,49.8-49.8C178.6,180.3,175.4,170.7,170,162.8z M128.8,236.5c-25.3,0-45.9-20.6-45.9-45.9
				c0-9.5,2.9-18.4,7.9-25.7c4.5-6.6,10.7-12.1,18-15.6c6-3,12.8-4.6,20-4.6s14,1.7,20,4.6c7.3,3.5,13.5,8.9,18,15.6
				c5,7.3,7.9,16.2,7.9,25.7C174.7,215.9,154.1,236.5,128.8,236.5z"/>
			<path class="st0" d="M128.7,200.2c0.8,0.2,8.6-2.5,8.6-6.2c0-2.1-6.4-2.5-8.6-2.5c-2.2,0-8.6,0.4-8.6,2.5
				C120.1,197.7,128,200.4,128.7,200.2z"/>
			<path class="st0" d="M157.6,169.1c-4.3-2.9-13.9-4.6-17.6,0.4c0,0-4.7,5.1-0.1,10.3c4.7,5.3,8.2,10.2,9.3,14.5s2.8,6,6.2,6.1
				c3.5,0,10.1-5.3,10.9-13.8C167.2,178.1,162,171.9,157.6,169.1z M147.7,179.9c-1.5,0-2.6-1.2-2.6-2.6c0-1.5,1.2-2.6,2.6-2.6
				c1.5,0,2.6,1.2,2.6,2.6C150.3,178.7,149.1,179.9,147.7,179.9z"/>
			<path class="st0" d="M117.4,169.4c-3.8-4.9-13.4-3.3-17.6-0.4c-4.3,2.9-9.6,9-8.7,17.5c0.8,8.5,7.5,13.8,10.9,13.8
				c3.5,0,5.2-1.8,6.2-6.1c1.1-4.3,4.7-9.2,9.3-14.5C122.1,174.5,117.4,169.4,117.4,169.4z M110.5,179.9c-1.5,0-2.6-1.2-2.6-2.6
				c0-1.5,1.2-2.6,2.6-2.6s2.6,1.2,2.6,2.6C113,178.7,111.9,179.9,110.5,179.9z"/>
		</g>
	</g>
</g>
</svg>
